HIERARCHY
ROOT Hips
{
  OFFSET 18.8922 38.3337 8.65331
  CHANNELS 6 Xposition Yposition Zposition Zrotation Xrotation Yrotation
  JOINT LeftHip
  {
    OFFSET 3.43 2.23997e-012 1.59872e-014
    CHANNELS 6 Xposition Yposition Zposition Zrotation Xrotation Yrotation
    JOINT LeftKnee
    {
      OFFSET 1.42109e-014 -18.47 -6.21725e-015
      CHANNELS 6 Xposition Yposition Zposition Zrotation Xrotation Yrotation
      JOINT LeftAnkle
      {
        OFFSET -3.55271e-015 -17.95 -1.77636e-015
        CHANNELS 6 Xposition Yposition Zposition Zrotation Xrotation Yrotation
        End Site
        {
          OFFSET 0 -3.12 0
        }
      }
    }
  }
  JOINT RightHip
  {
    OFFSET -3.43 2.60943e-013 3.19744e-014
    CHANNELS 6 Xposition Yposition Zposition Zrotation Xrotation Yrotation
    JOINT RightKnee
    {
      OFFSET 7.10543e-015 -18.47 5.32907e-015
      CHANNELS 6 Xposition Yposition Zposition Zrotation Xrotation Yrotation
      JOINT RightAnkle
      {
        OFFSET 3.55271e-015 -17.95 0
        CHANNELS 6 Xposition Yposition Zposition Zrotation Xrotation Yrotation
        End Site
        {
          OFFSET 0 -3.12 0
        }
      }
    }
  }
  JOINT Chest
  {
    OFFSET -3.55271e-015 4.57 7.99361e-015
    CHANNELS 6 Xposition Yposition Zposition Zrotation Xrotation Yrotation
    JOINT Chest2
    {
      OFFSET -3.55271e-015 6.57 8.88178e-016
      CHANNELS 6 Xposition Yposition Zposition Zrotation Xrotation Yrotation
      JOINT LeftCollar
      {
        OFFSET 1.06 4.19 1.76
        CHANNELS 6 Xposition Yposition Zposition Zrotation Xrotation Yrotation
        JOINT LeftShoulder
        {
          OFFSET 5.81 -4.07661e-012 4.44089e-015
          CHANNELS 6 Xposition Yposition Zposition Zrotation Xrotation Yrotation
          JOINT LeftElbow
          {
            OFFSET -3.81207e-013 -12.08 9.04958e-013
            CHANNELS 6 Xposition Yposition Zposition Zrotation Xrotation Yrotation
            JOINT LeftWrist
            {
              OFFSET -7.10543e-015 -9.82 0
              CHANNELS 6 Xposition Yposition Zposition Zrotation Xrotation Yrotation
              End Site
              {
                OFFSET 0 -7.37 0
              }
            }
          }
        }
      }
      JOINT RightCollar
      {
        OFFSET -1.06 4.19 1.76
        CHANNELS 6 Xposition Yposition Zposition Zrotation Xrotation Yrotation
        JOINT RightShoulder
        {
          OFFSET -6.06 -2.27952e-012 8.88178e-016
          CHANNELS 6 Xposition Yposition Zposition Zrotation Xrotation Yrotation
          JOINT RightElbow
          {
            OFFSET 4.34351e-013 -11.08 -3.41318e-013
            CHANNELS 6 Xposition Yposition Zposition Zrotation Xrotation Yrotation
            JOINT RightWrist
            {
              OFFSET 1.42109e-014 -9.82 -8.88178e-016
              CHANNELS 6 Xposition Yposition Zposition Zrotation Xrotation Yrotation
              End Site
              {
                OFFSET 0 -7.14001 0
              }
            }
          }
        }
      }
      JOINT Neck
      {
        OFFSET 3.55271e-015 4.05 4.44089e-016
        CHANNELS 6 Xposition Yposition Zposition Zrotation Xrotation Yrotation
        JOINT Head
        {
          OFFSET -3.55271e-015 5.19 4.44089e-016
          CHANNELS 6 Xposition Yposition Zposition Zrotation Xrotation Yrotation
          End Site
          {
            OFFSET 0 4.14001 0
          }
        }
      }
    }
  }
}
MOTION
Frames:	6
Frame Time:	0.0333333
18.023 40.1656 -6.14702 0.0472232 0.0046276 0.0952876 3.43 -7.13676e-015 1.59872e-014 0.96974 2.13466 1.54467 1.42109e-014 -18.47 -6.21725e-015 0.04584 1.52763 -2.24995 -3.55271e-015 -17.95 -1.77636e-015 0.618291 -3.02666 0.0163359 -3.43 -1.00093e-013 3.19744e-014 -1.38011 1.97271 -4.40791 7.10543e-015 -18.47 5.32907e-015 -0.0630781 1.22948 1.8765 3.55271e-015 -17.95 0 0.314745 -2.82648 0.0076823 -3.55271e-015 4.57 7.99361e-015 1.00234 -5.43962 -0.688717 -3.55271e-015 6.57 8.88178e-016 0.720044 -6.44386 -1.18142 1.06 4.19 1.76 10.6351 0.571219 3.33891 5.81 -2.91275e-014 4.44089e-015 91.5873 8.59388 2.57644 7.06761e-015 -12.08 -3.62913e-015 -1.11369 -1.42706e-013 -2.01733 -7.10543e-015 -9.82 0 1.58828 -0.08045 0.000953657 -1.06 4.19 1.76 -11.611 0.599539 -2.62492 -6.06 4.94036e-014 8.88178e-016 -92.1852 13.3382 10.2777 3.52876e-014 -11.08 2.50984e-014 -3.52974 -4.08937e-014 -7.57705 1.42109e-014 -9.82 -8.88178e-016 2.20267 -0.843665 0.0162269 3.55271e-015 4.05 4.44089e-016 0.0222316 0.0245895 -0.000733339 -3.55271e-015 5.19 4.44089e-016 0.0148709 0.0353063 0.00298751 
18.0163 40.1648 -6.16919 0.0630903 0.021317 0.0604232 3.43 -9.72977e-015 1.59872e-014 0.977578 1.98632 1.51998 1.42109e-014 -18.47 -6.21725e-015 0.0471643 1.68322 -2.10764 -3.55271e-015 -17.95 -1.77636e-015 0.4809 -3.01782 0.0126617 -3.43 1.16815e-014 3.19744e-014 -1.38454 1.66784 -4.40448 7.10543e-015 -18.47 5.32907e-015 -0.0784468 1.67644 1.88562 3.55271e-015 -17.95 0 0.0664456 -3.071 0.00178912 -3.55271e-015 4.57 7.99361e-015 1.00465 -5.46344 -0.648303 -3.55271e-015 6.57 8.88178e-016 0.610787 -6.49623 -1.17231 1.06 4.19 1.76 10.948 0.555136 3.2602 5.81 6.98981e-014 4.44089e-015 91.315 8.60864 2.55978 5.99277e-015 -12.08 -4.58173e-015 -1.1541 -1.38503e-013 -1.47213 -7.10543e-015 -9.82 0 2.18761 0.0449019 -0.00173875 -1.06 4.19 1.76 -11.6544 0.587428 -2.53371 -6.06 4.56346e-014 8.88178e-016 -92.0425 13.4234 10.3144 3.25446e-014 -11.08 2.82122e-014 -3.56207 -3.45771e-014 -7.84928 1.42109e-014 -9.82 -8.88178e-016 2.34682 -0.881089 0.0180371 3.55271e-015 4.05 4.44089e-016 0.171036 0.206995 -5.12854e-005 -3.55271e-015 5.19 4.44089e-016 0.166128 0.323039 0.0163611 
18.0003 40.1667 -6.18963 0.127363 -0.0973911 0.0594088 3.43 -1.61303e-014 1.59872e-014 0.904402 2.1122 1.50816 1.42109e-014 -18.47 -6.21725e-015 0.0429511 1.60108 -2.05525 -3.55271e-015 -17.95 -1.77636e-015 0.713309 -2.98181 0.0185706 -3.43 1.29626e-013 3.19744e-014 -1.42372 1.78735 -4.42147 7.10543e-015 -18.47 5.32907e-015 -0.111753 1.61359 1.83063 3.55271e-015 -17.95 0 0.336107 -2.91931 0.00859769 -3.55271e-015 4.57 7.99361e-015 0.949258 -5.39988 -0.645421 -3.55271e-015 6.57 8.88178e-016 0.540236 -6.39397 -1.18452 1.06 4.19 1.76 10.9098 0.559714 3.26847 5.81 1.1406e-013 4.44089e-015 91.5006 8.6826 2.48859 3.5851e-015 -12.08 -6.09397e-015 -1.15845 -1.3301e-013 -2.68076 -7.10543e-015 -9.82 0 1.02534 -0.944149 0.00851742 -1.06 4.19 1.76 -11.5878 0.578405 -2.46839 -6.06 4.01731e-014 8.88178e-016 -92.1101 13.4761 10.5036 2.84897e-014 -11.08 3.3456e-014 -3.51245 -2.38417e-014 -8.2557 1.42109e-014 -9.82 -8.88178e-016 2.6055 -0.788043 0.0179033 3.55271e-015 4.05 4.44089e-016 0.089173 0.233235 0.0326349 -3.55271e-015 5.19 4.44089e-016 0.436388 0.52778 -0.0410377 
17.9894 40.1714 -6.22112 0.0316522 -0.0845893 0.0184301 3.43 -2.58337e-014 1.59872e-014 1.0345 2.0646 1.58155 1.42109e-014 -18.47 -6.21725e-015 0.0362643 1.63086 -2.18355 -3.55271e-015 -17.95 -1.77636e-015 0.622082 -2.974 0.0161476 -3.43 2.4444e-013 3.19744e-014 -1.30164 1.78187 -4.34561 7.10543e-015 -18.47 5.32907e-015 -0.0966926 1.50165 1.92002 3.55271e-015 -17.95 0 0.15711 -2.76298 0.00377549 -3.55271e-015 4.57 7.99361e-015 0.956692 -5.39866 -0.643191 -3.55271e-015 6.57 8.88178e-016 0.608331 -6.38454 -1.12146 1.06 4.19 1.76 10.9333 0.56711 3.31903 5.81 1.47767e-013 4.44089e-015 91.509 8.55001 2.36863 -1.217e-016 -12.08 -8.15971e-015 -1.23852 -1.26642e-013 -1.83905 -7.10543e-015 -9.82 0 1.91601 -0.112267 0.00217543 -1.06 4.19 1.76 -11.678 0.600105 -2.64841 -6.06 3.31072e-014 8.88178e-016 -91.9908 13.2526 10.1838 2.31545e-014 -11.08 4.08065e-014 -3.55845 -8.87781e-015 -8.29754 1.42109e-014 -9.82 -8.88178e-016 3.19336 -0.766564 0.0214092 3.55271e-015 4.05 4.44089e-016 0.242299 0.355751 -0.0598391 -3.55271e-015 5.19 4.44089e-016 0.159103 0.471159 -0.0174283 
17.9802 40.1692 -6.24316 0.031205 -0.211211 -0.0388838 3.43 -3.83357e-014 1.59872e-014 0.986669 2.09509 1.50152 1.42109e-014 -18.47 -6.21725e-015 0.145347 1.75088 -2.01192 -3.55271e-015 -17.95 -1.77636e-015 0.607062 -3.05598 0.0161935 -3.43 2.24812e-013 3.19744e-014 -1.32394 1.7546 -4.41861 7.10543e-015 -18.47 5.32907e-015 -0.0264816 1.70926 1.99493 3.55271e-015 -17.95 0 0.0921571 -2.79516 0.00225601 -3.55271e-015 4.57 7.99361e-015 0.927903 -5.33941 -0.607867 -3.55271e-015 6.57 8.88178e-016 0.600542 -6.30064 -1.07858 1.06 4.19 1.76 10.8284 0.563786 3.24073 5.81 1.69908e-013 4.44089e-015 91.7012 8.55394 2.15348 -5.09393e-015 -12.08 -1.07728e-014 -1.33466 -1.1928e-013 -0.947019 -7.10543e-015 -9.82 0 1.7991 -0.0862711 0.00131901 -1.06 4.19 1.76 -11.7286 0.586716 -2.59014 -6.06 2.4525e-014 8.88178e-016 -91.9024 13.344 10.3014 1.65706e-014 -11.08 5.0241e-014 -3.49988 1.01901e-014 -8.31047 1.42109e-014 -9.82 -8.88178e-016 3.36125 -0.966914 0.0283326 3.55271e-015 4.05 4.44089e-016 0.122707 0.714173 -0.104051 -3.55271e-015 5.19 4.44089e-016 0.322294 0.395346 -0.136508 
17.9744 40.1649 -6.2719 0.132169 -0.233484 -0.135211 3.43 -5.31315e-014 1.59872e-014 0.875654 2.08132 1.4025 1.42109e-014 -18.47 -6.21725e-015 0.182358 1.73311 -1.73461 -3.55271e-015 -17.95 -1.77636e-015 0.540836 -2.99591 0.0141572 -3.43 1.49083e-013 3.19744e-014 -1.46428 1.6033 -4.50862 7.10543e-015 -18.47 5.32907e-015 0.0116449 1.92353 2.22636 3.55271e-015 -17.95 0 0.205005 -2.85998 0.00512481 -3.55271e-015 4.57 7.99361e-015 0.879786 -5.33222 -0.537755 -3.55271e-015 6.57 8.88178e-016 0.499728 -6.32666 -1.08265 1.06 4.19 1.76 10.725 0.567836 3.22711 5.81 1.79371e-013 4.44089e-015 91.9242 8.59494 1.90291 -1.12979e-014 -12.08 -1.39271e-014 -1.39191 -1.1099e-013 -1.13241 -7.10543e-015 -9.82 0 1.09842 -0.209177 0.00198765 -1.06 4.19 1.76 -11.7045 0.56578 -2.45271 -6.06 1.45145e-014 8.88178e-016 -91.9507 13.4185 10.6302 8.76958e-015 -11.08 6.17363e-014 -3.39781 3.32071e-014 -8.3435 1.42109e-014 -9.82 -8.88178e-016 3.39834 -0.606209 0.0180091 3.55271e-015 4.05 4.44089e-016 -0.00831294 1.09543 -0.109817 -3.55271e-015 5.19 4.44089e-016 0.502017 0.274302 -0.225916 
